<?xml version="1.0" encoding="utf-8"?>
<!-- Generator: Adobe Illustrator 24.3.0, SVG Export Plug-In . SVG Version: 6.00 Build 0)  -->
<svg version="1.1" id="Layer_1" xmlns="http://www.w3.org/2000/svg" xmlns:xlink="http://www.w3.org/1999/xlink" x="0px" y="0px"
	 viewBox="0 0 375.05 209.23" style="enable-background:new 0 0 375.05 209.23;" xml:space="preserve">
<style type="text/css">
	.st0{fill:none;}
	.st1{fill:#424D21;}
	.st2{fill:#FFFFFF;}
</style>
<g>
	<path class="st0" d="M84.08,132.97c-1.39-0.01-2.78-0.02-4.17-0.04C81.53,132.95,82.95,132.96,84.08,132.97z"/>
	<path class="st0" d="M103.24,110.7c1.6-11.16,2.61-22.38,1.25-33.62c-0.64-5.26-1.97-10.46-3.27-15.61
		c-0.71-2.78-2.57-5.01-4.95-6.7c-1.43-1.01-2.73-0.59-3.24,1.05c-0.22,0.69-0.33,1.48-0.25,2.2c0.42,4.19,1.02,8.36,1.37,12.55
		c0.72,8.7,1.33,17.42,1.98,26.13c-0.1,0.01-0.2,0.02-0.3,0.04c-0.18,4.15-0.27,8.31-0.55,12.46c-0.18,2.56-0.27,3.74,0.41,4.27
		h6.73C102.87,113.07,103.01,112.29,103.24,110.7z"/>
	<path class="st0" d="M81.05,113.64c3.25,0.01,6.5,0.04,9.75,0.12c0.52,0.01,0.88-0.09,1.14-0.29H80.3
		C80.49,113.57,80.73,113.64,81.05,113.64z"/>
	<path class="st0" d="M99.59,113.88c1.55-0.02,2.34-0.03,2.81-0.42h-6.73C96.25,113.92,97.4,113.91,99.59,113.88z"/>
	<path class="st0" d="M92.45,112.15c0.25-5.64,0.96-11.3,0.73-16.92c-0.44-10.69-1.38-21.37-2.2-32.05
		c-0.29-3.79-1.14-7.51-3.02-10.86c-0.43-0.76-1.44-1.48-2.28-1.62c-0.42-0.07-1.37,1.12-1.56,1.87c-0.94,3.6-2.06,7.21-2.47,10.89
		c-1.13,10.11-1.94,20.25-2.77,29.17c0.34,7.44,0.63,13.61,0.89,19.79c0.02,0.55,0.2,0.87,0.53,1.05h11.64
		C92.27,113.2,92.42,112.77,92.45,112.15z"/>
	<path class="st0" d="M44.94,132.63c-0.33,0-0.62-0.03-0.86-0.1C44.32,132.6,44.6,132.63,44.94,132.63z"/>
	<path class="st0" d="M104.91,136.29c-8.96-0.07-17.91-0.14-26.87-0.22c-9.28-0.08-18.55-0.18-27.83-0.24
		c-1.87-0.01-1.97,0.15-1.4,1.94c1.77,5.65,11.08,36.14,13.89,45.76c0.43,1.46,1.16,2.12,2.7,2.11c9.11-0.07,18.23-0.07,27.34-0.18
		c0.54-0.01,1.33-0.63,1.56-1.16c0.95-2.26,1.75-4.58,2.56-6.89c4.52-13.05,9.03-26.11,13.54-39.16c0.17-0.49,0.3-0.99,0.59-1.96
		C108.72,136.29,106.81,136.31,104.91,136.29z"/>
	<path class="st0" d="M43.06,130.75c-0.04-4.1-0.21-8.2-0.33-12.3C42.85,122.55,43.02,126.65,43.06,130.75
		c0.01,1.05,0.31,1.58,1.02,1.79C43.37,132.33,43.07,131.8,43.06,130.75z"/>
	<path d="M116.32,114.36c-1.38-0.12-2.62-0.39-3.82-0.9H102.4c-0.47,0.39-1.27,0.4-2.81,0.42c-2.18,0.03-3.34,0.04-3.92-0.42h-3.73
		c-0.26,0.2-0.62,0.3-1.14,0.29c-3.25-0.08-6.5-0.1-9.75-0.12c-0.32,0-0.56-0.07-0.75-0.17h-3.44c-0.3,0.11-0.76,0.12-1.48,0.12
		c-2.82,0-5.65-0.13-8.47-0.06c-0.28,0.01-0.51-0.02-0.73-0.06H42.46c-2.02,0.17-2.81,1.11-2.79,3.24c0.01,1.06,0.12,2.12,0.15,3.19
		c0.09,4.31,0.09,8.63,0.27,12.94c0.08,2.04,0.86,2.77,2.92,2.85c1.35,0.05,1.96,0.57,2.34,1.84c4.61,15.43,9.28,30.84,13.88,46.27
		c1.23,4.14,2.58,5.22,6.81,5.14c5.81-0.11,11.62-0.14,17.43-0.19c3.89-0.03,7.77-0.03,11.66-0.02c1.09,0,1.57-0.53,1.9-1.54
		c1.6-4.91,3.24-9.81,4.92-14.7c3.97-11.55,7.97-23.09,11.92-34.64c0.33-0.97,0.88-1.41,1.81-1.77c0.74-0.28,1.8-1,1.86-1.6
		c0.57-5.61,1.01-11.24,1.34-16.87C118.96,115.97,117.96,114.51,116.32,114.36z M110.39,138.26c-4.51,13.05-9.01,26.11-13.54,39.16
		c-0.8,2.32-1.61,4.64-2.56,6.89c-0.22,0.53-1.02,1.15-1.56,1.16c-9.11,0.11-18.23,0.11-27.34,0.18c-1.54,0.01-2.27-0.65-2.7-2.11
		c-2.8-9.62-12.11-40.12-13.89-45.76c-0.56-1.79-0.47-1.95,1.4-1.94c9.28,0.06,18.55,0.16,27.83,0.24
		c8.96,0.08,17.91,0.15,26.87,0.22c1.9,0.01,3.81,0,6.07,0C110.69,137.27,110.56,137.77,110.39,138.26z M115.18,127.84
		c-0.03,1-0.06,2-0.11,2.99c-0.04,0.79-0.1,1.32-0.29,1.67c-0.31,0.58-0.93,0.68-2.26,0.67c-9.48-0.05-18.96-0.13-28.44-0.2
		c-1.13-0.01-2.55-0.02-4.17-0.04c-7.45-0.06-14.9-0.13-22.35-0.19c-4.21-0.04-8.42-0.11-12.62-0.11c-0.33,0-0.62-0.03-0.86-0.1
		c-0.71-0.2-1.01-0.74-1.02-1.79c-0.04-4.1-0.21-8.2-0.33-12.3c-0.03-0.97-0.01-1.48,0.26-1.75c0.27-0.27,0.8-0.29,1.79-0.29
		c11.4,0.01,22.8,0.01,34.2,0.01c0,0.24,0,0.48,0,0.73c5.78,0,11.56,0,17.34,0c5.78,0,11.56-0.01,17.34-0.02
		c1.3,0,1.81,0.38,1.75,1.74C115.29,121.85,115.27,124.85,115.18,127.84z"/>
	<path class="st1" d="M64.76,111.6c-0.41-4.71-0.81-9.43-1.22-14.14c0.13-0.01,0.26-0.02,0.39-0.03c0.43-9.37,0.6-18.79,2.92-27.94
		c1.09-4.32,2.72-8.53,4.38-12.67c0.69-1.73,1.97-3.29,3.25-4.69c1.36-1.49,3.2-1.7,4.51-0.93c1.44,0.85,1.83,2.58,1.51,4.63
		c-0.96,6.04-2.06,12.09-2.58,18.18c-0.71,8.22-1.08,16.49-1.3,24.74c-0.11,4.19,0.4,8.4,0.68,12.6c0.09,1.39,0.11,1.92-0.45,2.11
		h3.44c-0.33-0.18-0.51-0.5-0.53-1.05c-0.27-6.17-0.55-12.35-0.89-19.79c0.83-8.91,1.64-19.06,2.77-29.17
		c0.41-3.68,1.53-7.29,2.47-10.89c0.2-0.75,1.14-1.94,1.56-1.87c0.84,0.14,1.85,0.85,2.28,1.62c1.88,3.35,2.73,7.07,3.02,10.86
		c0.82,10.68,1.75,21.35,2.2,32.05c0.23,5.62-0.47,11.28-0.73,16.92c-0.03,0.62-0.18,1.06-0.51,1.32h3.73
		c-0.68-0.53-0.59-1.71-0.41-4.27c0.29-4.15,0.38-8.31,0.55-12.46c0.1-0.01,0.2-0.02,0.3-0.04c-0.65-8.71-1.26-17.43-1.98-26.13
		c-0.35-4.19-0.94-8.36-1.37-12.55c-0.07-0.72,0.04-1.5,0.25-2.2c0.52-1.65,1.82-2.06,3.24-1.05c2.38,1.68,4.25,3.91,4.95,6.7
		c1.31,5.15,2.64,10.35,3.27,15.61c1.36,11.24,0.35,22.46-1.25,33.62c-0.23,1.59-0.36,2.37-0.84,2.77h10.11
		c-0.62-0.26-1.22-0.58-1.82-0.97c-1.06-0.7-2.54-0.74-3.78-1.22c-0.41-0.16-0.95-0.77-0.93-1.15c0.15-2.55,0.28-5.1,2.84-6.71
		c1.02-0.64,1.79-1.66,2.67-2.52c0.27-0.26,0.66-0.52,0.72-0.83c0.12-0.6,0.05-1.24,0.05-1.86c-0.57,0.08-1.29-0.02-1.7,0.28
		c-0.85,0.63-1.52,1.48-2.29,2.22c-0.31,0.3-0.68,0.52-1.31,0.99c0.2-3.37,0.34-6.34,0.6-9.3c0.03-0.35,0.73-0.81,1.2-0.93
		c1.6-0.4,3.24-0.66,4.85-1c0.9-0.19,2.01-0.38,1.7-1.62c-0.31-1.23-1.4-0.85-2.28-0.67c-1.25,0.25-2.5,0.58-3.76,0.77
		c-0.52,0.08-1.08-0.08-1.63-0.14c0.11-0.75,0.14-1.53,0.36-2.25c0.08-0.29,0.56-0.46,0.85-0.7c1.39-1.16,2.8-2.3,4.14-3.52
		c0.67-0.6,1.48-1.4,0.65-2.31c-0.9-0.98-1.6-0.01-2.27,0.57c-1.12,0.96-2.24,1.91-3.36,2.86c-0.14-0.09-0.28-0.19-0.42-0.28
		c-0.11-1.53-0.3-3.06-0.27-4.59c0.01-0.4,0.67-0.99,1.14-1.12c1.53-0.44,3.12-0.68,4.68-1.05c0.94-0.23,2.32-0.28,1.98-1.71
		c-0.32-1.33-1.53-0.8-2.43-0.61c-1.41,0.3-2.81,0.63-4.21,0.98c-1.11,0.28-1.69-0.04-1.84-1.26c-0.19-1.59-0.48-3.16-0.81-4.73
		c-0.23-1.07,0.07-1.55,1.2-1.7c1.74-0.24,3.49-0.54,5.16-1.05c0.55-0.17,0.89-1.05,1.33-1.6c-0.63-0.21-1.29-0.65-1.89-0.58
		c-1.64,0.2-3.25,0.59-4.86,0.94c-1.13,0.25-1.79-0.04-2.09-1.27c-0.31-1.29-0.78-2.56-1.32-3.77c-0.41-0.91-0.34-1.43,0.42-2.18
		c1.67-1.64,3.23-3.4,4.67-5.25c0.33-0.43,0.26-1.64-0.12-2.06c-0.64-0.73-1.28-0.13-1.78,0.56c-0.72,0.99-1.51,1.93-2.33,2.84
		c-2.42,2.68-2.41,2.64-4.93,0.21c-0.75-0.72-0.86-1.35-0.42-2.24c0.7-1.44,1.35-2.9,1.99-4.37c0.36-0.82,0.94-1.82-0.19-2.38
		c-1.14-0.56-1.57,0.49-1.95,1.32c-0.65,1.4-1.22,2.84-1.91,4.23c-0.21,0.42-0.64,0.89-1.06,1.02c-1.42,0.43-2.88,0.71-4.57,1.1
		c-0.82-1.23-1.69-2.8-0.98-4.82c0.39-1.1,0.72-2.26,0.81-3.41c0.05-0.58-0.51-1.2-0.79-1.8c-0.48,0.41-1.17,0.73-1.39,1.25
		c-0.43,1.02-0.56,2.16-0.9,3.23c-0.11,0.33-0.58,0.85-0.75,0.8c-2.32-0.65-3.92,0.36-5.09,2.19c-1.71-0.8-2.21-1.83-1.4-3.51
		c0.52-1.09,0.89-2.31,1.06-3.5c0.07-0.49-0.54-1.09-0.84-1.64c-0.45,0.36-1.12,0.63-1.31,1.09c-0.57,1.37-1.02,2.81-1.4,4.25
		c-0.25,0.96-0.72,1.36-1.73,1.52c-1.1,0.18-1.55-0.35-2-1.14c-0.88-1.52-1.72-3.08-2.76-4.49c-0.37-0.5-1.26-0.62-1.91-0.91
		c-0.03,0.71-0.33,1.55-0.05,2.1c0.84,1.66,1.94,3.18,2.85,4.81c0.21,0.38,0.29,1.09,0.07,1.4c-1.04,1.54-2.19,3-3.33,4.47
		c-0.18,0.23-0.47,0.44-0.75,0.53c-1.2,0.37-2.42,0.69-3.78,1.08c-0.13-0.38-0.31-0.87-0.47-1.36c-0.56-1.72-1.04-3.48-1.73-5.15
		c-0.2-0.49-0.96-0.76-1.46-1.13c-0.25,0.62-0.77,1.28-0.68,1.84c0.2,1.19,0.59,2.4,1.13,3.49c1.52,3.1,1.3,5.76-1.35,8.22
		c-0.88,0.82-1.36,0.95-2.22,0.22c-1.3-1.11-2.57-2.26-3.98-3.21c-0.51-0.35-1.38-0.16-2.09-0.22c0.2,0.68,0.19,1.59,0.64,2
		c1.39,1.31,2.93,2.48,4.48,3.62c0.72,0.53,0.96,0.97,0.52,1.84c-0.68,1.32-1.28,2.7-1.79,4.1c-0.36,1.01-0.84,1.13-1.8,0.78
		c-1.5-0.55-3.05-0.97-4.59-1.38c-0.94-0.25-2.19-0.85-2.55,0.59c-0.33,1.31,0.99,1.41,1.87,1.68c1.58,0.48,3.18,0.89,4.74,1.43
		c0.4,0.14,0.99,0.73,0.94,1.01c-0.4,2.13-0.94,4.23-1.5,6.63c-0.91-0.68-1.63-1.2-2.32-1.75c-0.87-0.7-1.64-1.57-2.6-2.1
		c-0.49-0.27-1.3,0.03-1.96,0.08c0.19,0.59,0.21,1.37,0.61,1.73c1.45,1.33,3.06,2.49,4.56,3.76c0.51,0.44,1.29,1.01,1.29,1.53
		c0.02,2.09-0.22,4.19-0.38,6.6c-1.78-0.63-3.21-1.15-4.66-1.65c-0.85-0.3-1.88-0.81-2.32,0.4c-0.45,1.22,0.7,1.5,1.52,1.81
		c1.39,0.53,2.84,0.94,4.22,1.5c0.47,0.19,1.12,0.68,1.14,1.07c0.11,2,0.05,4.01,0.05,6.3c-1.32-0.37-2.58-0.71-3.83-1.06
		c-0.8-0.22-1.79-0.49-1.93,0.6c-0.06,0.49,0.7,1.36,1.29,1.62c1.21,0.53,2.56,0.72,3.82,1.16c0.44,0.15,1,0.52,1.14,0.92
		c1.37,3.88,0.88,5.9-2.19,8.49c-0.66,0.56-1.69,0.83-2.58,0.92c-1.69,0.17-3.41,0.05-5.11,0.15c-0.08,0-0.15,0.02-0.22,0.02h23.72
		C65.26,113.28,64.85,112.67,64.76,111.6z M57.73,113.35c-0.47-0.07-1.01-1-1.16-1.62c-1.35-5.4-1.9-10.9-1.91-16.47
		c-0.02-8.04,0.79-15.95,3.47-23.6c1.63-4.66,4.23-8.7,7.58-12.28c0.49-0.52,1.1-0.91,1.66-1.37c0.14,0.11,0.29,0.21,0.43,0.32
		c-3.76,8.64-5.14,17.77-5.74,27.05c-0.59,9.24-1.32,18.48,0.35,28.05C60.74,113.42,59.21,113.56,57.73,113.35z"/>
	<path class="st2" d="M78.99,116.42c-11.4,0-22.8,0.01-34.2-0.01c-0.99,0-1.52,0.02-1.79,0.29c0.27-0.27,0.8-0.29,1.79-0.29
		C56.19,116.42,67.59,116.42,78.99,116.42z"/>
	<path class="st2" d="M57.56,132.74c7.45,0.07,14.9,0.13,22.35,0.19c-11-0.1-31.3-0.3-34.97-0.3
		C49.15,132.64,53.35,132.71,57.56,132.74z"/>
	<path class="st2" d="M114.79,132.5c0.18-0.35,0.25-0.88,0.29-1.67c0.05-1,0.08-1.99,0.11-2.99c-0.03,1-0.06,2-0.11,2.99
		C115.04,131.63,114.97,132.15,114.79,132.5z"/>
	<path class="st2" d="M115.42,118.86c-0.12,2.99-0.15,5.99-0.24,8.98C115.27,124.85,115.29,121.85,115.42,118.86z"/>
	<path class="st2" d="M96.33,117.14c-5.78,0-11.56,0-17.34,0c0-0.24,0-0.48,0-0.73c0,0.24,0,0.48,0,0.73
		C84.77,117.14,90.55,117.14,96.33,117.14z"/>
	<path class="st2" d="M66.91,113.53c2.82-0.07,5.65,0.07,8.47,0.06c0.72,0,1.18-0.02,1.48-0.12H66.18
		C66.4,113.51,66.63,113.53,66.91,113.53z"/>
</g>
<g>
	<path class="st1" d="M187.47,113.64c-6.87,0-13.75-0.01-20.62,0.01c-0.96,0-1.38-0.39-1.38-1.31c-0.04-11.94,3.83-24,15.67-30.09
		c3.19-1.64,6.94-2.57,10.52-2.98c6.26-0.71,12.79,3.63,15.46,10.06c3.05,7.33,3.66,15.06,2.86,22.93c-0.1,0.95-0.43,1.47-1.11,1.69
		h4.31c-0.71-0.25-0.61-0.87-0.23-2.58c0.12-0.54,0.8-1.17,1.36-1.37c1.15-0.41,2.39-0.53,3.59-0.8c0.89-0.2,1.98-0.38,1.73-1.62
		c-0.24-1.22-1.26-1.05-2.2-0.85c-1.33,0.28-2.67,0.53-4.15,0.82c-0.11-1.47-0.15-2.69-0.32-3.89c-0.15-1.09,0.26-1.56,1.3-1.74
		c1.26-0.22,2.53-0.46,3.73-0.89c0.46-0.17,0.72-0.89,1.06-1.36c-0.53-0.32-1.03-0.8-1.6-0.92c-0.53-0.11-1.15,0.15-1.72,0.28
		c-3.12,0.69-3.08,0.68-3.64-2.52c-0.18-1.04,0.03-1.72,0.95-2.27c1.05-0.63,2.13-1.26,3.01-2.09c0.42-0.4,0.75-1.39,0.55-1.86
		c-0.41-0.94-1.21-0.49-1.87-0.03c-1.07,0.75-2.15,1.49-3.21,2.22c-1.1-2.41-2.12-4.56-3.05-6.76c-0.15-0.35,0-1.03,0.27-1.3
		c2.47-2.41,4.99-4.75,7.72-7.33c0.66,1.69,1.19,3.07,1.73,4.45c0.32,0.8,0.63,1.79,1.75,1.36c1.1-0.42,0.76-1.39,0.47-2.2
		c-0.54-1.45-1.17-2.86-1.7-4.32c-0.17-0.47-0.39-1.19-0.17-1.49c1.09-1.47,2.31-2.84,3.68-4.48c0.72,1.42,1.26,2.51,1.81,3.58
		c0.41,0.79,0.75,1.93,1.92,1.39c1.26-0.59,0.58-1.64,0.17-2.48c-0.58-1.2-1.29-2.34-1.82-3.56c-0.19-0.45-0.2-1.16,0.02-1.58
		c0.78-1.51,1.73-2.94,2.54-4.44c0.43-0.8,0.91-0.96,1.65-0.46c0.93,0.63,1.87,1.23,2.8,1.86c0.73,0.49,1.54,1.08,2.2,0.06
		c0.66-1-0.23-1.55-0.93-2.04c-0.96-0.67-1.93-1.35-2.96-1.89c-0.91-0.47-1.06-0.97-0.67-1.91c0.59-1.42,1.1-2.89,1.5-4.38
		c0.26-0.95,0.72-1.33,1.68-1.29c0.96,0.04,1.96,0.15,2.86-0.09c0.61-0.16,1.07-0.88,1.6-1.35c-0.58-0.32-1.14-0.82-1.76-0.93
		c-0.82-0.14-1.7,0-2.55,0.06c-0.89,0.06-1.2-0.33-1.25-1.21c-0.07-1.17-0.24-2.34-0.49-3.48c-0.19-0.85,0.06-1.27,0.84-1.6
		c1.13-0.47,2.23-1.03,3.31-1.6c0.77-0.41,1.69-0.97,0.98-1.92c-0.27-0.36-1.41-0.32-2.04-0.13c-0.95,0.29-1.83,0.86-2.71,1.36
		c-0.97,0.54-1.6,0.43-2.17-0.65c-0.54-1.02-1.27-1.98-2.08-2.81c-0.73-0.75-0.59-1.21,0.1-1.82c0.92-0.81,1.87-1.62,2.63-2.56
		c0.3-0.37,0.12-1.11,0.16-1.69c-0.58,0.02-1.24-0.14-1.71,0.09c-0.59,0.29-1.11,0.85-1.52,1.39c-1.46,1.92-3.17,2.72-5.61,1.85
		c-0.8-0.29-1.16-0.54-1.19-1.36c-0.05-1.28-0.06-2.57-0.31-3.82c-0.09-0.44-0.82-0.75-1.27-1.11c-0.33,0.42-0.82,0.8-0.95,1.28
		c-0.14,0.54,0.05,1.16,0.1,1.74c0.27,3.27,0.26,3.23-2.92,4.06c-1.02,0.27-1.46-0.03-1.81-0.93c-0.44-1.14-0.88-2.31-1.53-3.33
		c-0.28-0.44-1.11-0.53-1.69-0.78c-0.11,0.6-0.46,1.28-0.3,1.8c0.35,1.16,1.01,2.23,1.43,3.38c0.13,0.35,0.03,1.07-0.21,1.2
		c-1.17,0.69-2.42,1.24-3.77,1.9c-0.81-1.41-1.61-2.67-2.27-3.99c-0.41-0.82-0.88-1.45-1.81-1c-1.03,0.5-0.82,1.38-0.35,2.19
		c0.62,1.06,1.23,2.13,1.94,3.12c0.93,1.29,0.57,2.23-0.81,3.23c-0.73-1.16-1.33-2.35-2.15-3.34c-0.37-0.44-1.19-0.49-1.81-0.72
		c-0.06,0.62-0.35,1.36-0.12,1.84c0.6,1.24,1.46,2.35,2.18,3.53c0.26,0.44,0.68,1.03,0.56,1.41c-0.5,1.59-1.18,3.12-1.87,4.85
		c-0.55-0.62-0.87-1.18-1.34-1.44c-0.47-0.26-1.11-0.23-1.68-0.33c-0.01,0.58-0.24,1.27,0,1.71c0.5,0.93,1.29,1.69,1.87,2.58
		c0.27,0.41,0.49,0.99,0.43,1.44c-0.93,6.54-0.58,13.08-0.11,19.63c0.05,0.71-0.06,1.42-0.1,2.28c-1.91-0.45-3.58-0.85-5.27-1.26
		c0.44-1.77,0.93-3.35,1.19-4.97c0.21-1.31,0.55-2.25,1.96-2.74c0.51-0.18,1.13-1.28,1-1.79c-0.27-1.06-1.17-0.79-1.93-0.32
		c-0.17,0.1-0.38,0.12-1.13,0.34c0.35-0.95,0.46-1.6,0.8-2.1c0.54-0.78,1.37-1.38,1.81-2.2c0.2-0.38-0.24-1.09-0.39-1.66
		c-0.5,0.15-1.09,0.19-1.49,0.48c-0.56,0.41-0.97,1.02-1.5,1.6c-0.39-0.42-0.61-0.64-0.82-0.88c-1.46-1.67-1.28-2.37,0.81-3.24
		c0.54-0.22,1.22-0.37,1.55-0.78c0.36-0.45,0.39-1.17,0.56-1.77c-0.6-0.08-1.22-0.29-1.79-0.19c-0.62,0.11-1.2,0.51-1.9,0.83
		c-0.49-2-0.75-3.66,0.9-5.05c0.56-0.47,1.09-1.09,1.36-1.76c0.21-0.53-0.01-1.23-0.03-1.86c-0.59,0.16-1.23,0.23-1.76,0.52
		c-0.41,0.22-0.66,0.71-1.06,1.16c-1.39-3.19-1.37-3.28,1.2-4.83c0.27-0.17,0.65-0.28,0.79-0.52c0.32-0.58,0.53-1.22,0.78-1.83
		c-0.66-0.06-1.39-0.32-1.96-0.12c-0.92,0.32-1.73,0.95-2.66,1.5c-1.52-2.82-4.47-5.18-1.29-8.48c0.03-0.04,0.07-0.1,0.06-0.15
		c-0.15-0.56-0.3-1.12-0.45-1.68c-0.53,0.22-1.23,0.29-1.56,0.68c-0.63,0.75-1.06,1.67-1.58,2.54c-1.57-0.96-2.92-1.91-4.39-2.62
		c-0.94-0.46-1.15-0.97-0.79-1.87c0.38-0.94,0.87-1.86,1.07-2.83c0.11-0.54-0.3-1.18-0.48-1.78c-0.55,0.3-1.34,0.46-1.59,0.91
		c-0.58,1.06-0.89,2.28-1.35,3.41c-0.17,0.42-0.4,1.1-0.7,1.15c-1.72,0.33-3.47,0.7-5.19,0.58c-0.42-0.03-0.63-1.86-1.12-2.77
		c-0.24-0.45-0.9-0.68-1.36-1.01c-0.28,0.51-0.75,1.01-0.79,1.54c-0.04,0.66,0.21,1.37,0.45,2.01c0.36,1,0.05,1.51-0.75,2.26
		c-1.86,1.76-3.48,2.39-5.39,0.15c-0.22-0.26-1.03-0.02-1.57-0.02c0.05,0.57-0.1,1.31,0.21,1.68c0.55,0.69,1.37,1.16,2.08,1.73
		c0.69,0.54,0.05,5.12-0.76,5.45c-0.1,0.04-0.21,0.04-0.31,0.05c-2.66,0.28-5.31,0.55-8.25,0.86c-0.23-0.73-0.48-1.94-1.01-3.02
		c-0.26-0.53-1.02-0.81-1.55-1.2c-0.21,0.63-0.66,1.3-0.57,1.89c0.16,1.09,0.58,2.16,0.97,3.21c0.6,1.64-0.9,2.12-1.68,2.91
		c-0.25,0.25-1.25-0.04-1.77-0.32c-1.03-0.55-1.9-1.44-2.96-1.87c-0.55-0.23-1.38,0.21-2.08,0.35c0.28,0.54,0.44,1.26,0.88,1.6
		c1.09,0.84,2.34,1.48,3.47,2.28c0.33,0.23,0.7,0.73,0.69,1.09c-0.1,2.41-0.88,3.02-3.32,2.78c-0.37-0.04-0.83-0.16-1.1,0
		c-0.44,0.27-0.93,0.7-1.04,1.16c-0.06,0.25,0.56,0.84,0.98,0.98c0.69,0.23,1.47,0.27,2.21,0.31c0.83,0.05,1.22,0.37,1.27,1.27
		c0.1,1.59,0.39,3.18,0.46,4.77c0.02,0.54-0.25,1.19-0.59,1.65c-0.79,1.06-1.81,1.97-2.52,3.08c-0.26,0.41,0.08,1.22,0.14,1.84
		c0.58-0.2,1.3-0.24,1.72-0.62c0.76-0.68,1.35-1.56,2.13-2.49c1,1.92,1.85,3.54,2.74,5.24c-0.78,0.56-1.48,1.03-2.16,1.54
		c-0.67,0.51-1.37,1.19-0.62,1.94c0.32,0.32,1.32,0.14,1.92-0.06c0.63-0.22,1.13-0.81,1.74-1.11c0.31-0.15,0.92-0.18,1.11,0.01
		c1.96,1.93,3.87,3.91,5.9,5.99c-0.99,0.61-1.96,1.08-2.76,1.75c-0.34,0.29-0.35,0.98-0.51,1.49c0.52,0.14,1.13,0.52,1.53,0.37
		c1.09-0.41,2.08-1.08,3.13-1.59c0.41-0.2,1.01-0.49,1.32-0.33c2.82,1.44,5.6,2.96,8.51,4.52c-1.17,1.66-2.19,3.12-3.33,4.74
		c-1.05-0.98-1.87-1.9-2.85-2.58c-0.44-0.31-1.22-0.14-1.84-0.18c0.09,0.61-0.03,1.39,0.31,1.8c0.81,0.97,1.85,1.76,2.77,2.64
		c1,0.96,0.04,1.8-0.32,2.58c-0.12,0.26-1.08,0.35-1.54,0.18c-1.2-0.43-2.29-1.17-3.51-1.54c-0.56-0.17-1.29,0.21-1.94,0.33
		c0.32,0.58,0.48,1.41,0.97,1.7c1.27,0.76,2.71,1.25,4.04,1.93c0.36,0.18,0.88,0.68,0.84,0.96c-0.34,2.06-0.81,4.1-1.29,6.38
		c-1.31-0.91-2.34-1.64-3.39-2.35c-0.73-0.49-1.63-1.06-2.17-0.02c-0.21,0.4,0.36,1.36,0.8,1.88c0.46,0.55,1.15,0.96,1.81,1.29
		c2.05,1.06,2.98,2.55,2.8,5c-0.11,1.51-0.47,1.92-1.9,1.89c-3.62-0.07-7.25-0.08-10.87,0c-0.68,0.02-1.22,0.13-1.66,0.33h39.1
		C187.47,113.84,187.47,113.74,187.47,113.64z M201.94,55.52c0.07-0.9,0.28-1.79,0.53-2.66c2.73-9.6,6.09-12.28,16.37-13.94
		c2.98-0.48,5.42,0.85,7.07,3.42c2.47,3.87,3.05,8.07,1.63,12.4c-1.74,5.3-4.14,10.31-7.98,14.43c-3.91,4.2-8.01,8.23-11.99,12.37
		c-0.74,0.77-1.37,0.93-2.13,0.11c-0.04-0.04-0.08-0.08-0.12-0.1c-3.04-1.63-4.24-4.12-3.87-7.57c0.18-1.67-0.14-3.4-0.23-5.1
		c-0.09-0.01-0.18-0.02-0.27-0.03C201.26,64.42,201.57,59.97,201.94,55.52z M179.09,79.94c-0.49,0.28-1,0.54-1.5,0.8
		c-0.19-0.07-0.39-0.13-0.58-0.2c0-2.38-0.27-4.79,0.11-7.11c0.21-1.29,1.48-2.4,2.27-3.6c0.15,0.06,0.3,0.12,0.45,0.18
		c0.25,1.34,0.5,2.67,0.77,4c0.07,0.36,0.19,0.72,0.31,1.07C181.99,78.26,182,78.26,179.09,79.94z M192.1,66.15
		c0.14,0.73,0.13,1.48,0.2,2.22c0.09,0.03,0.19,0.06,0.28,0.1c-0.61,2.19-1.17,4.39-1.85,6.55c-0.13,0.42-0.64,0.91-1.07,1.02
		c-1.49,0.38-3.02,0.67-4.54,0.84c-0.34,0.04-1.02-0.47-1.09-0.81c-0.56-2.8-1.15-5.6-1.43-8.44c-0.17-1.69,0.71-3.18,2.12-4.26
		C187.79,61.01,191.36,62.34,192.1,66.15z M169.98,37.64c6.27-3.04,10.44-1.9,14.51,2.93c2.77,3.28,4.03,7.23,4.5,11.44
		c0.22,1.95,0.23,3.93,0.38,5.89c0.08,1.06-0.32,1.35-1.41,1.57c-2.07,0.42-3.34-0.23-4.16-2.08c-0.13-0.29-0.32-0.64-0.57-0.75
		c-0.44-0.19-1.18-0.46-1.38-0.26c-0.33,0.31-0.56,1.06-0.41,1.47c0.29,0.78,0.98,1.4,1.31,2.17c0.18,0.41,0.14,1.26-0.11,1.43
		c-0.39,0.26-1.06,0.12-1.61,0.12c-0.08,0-0.16-0.13-0.24-0.2c-0.61-0.6-1.29-1.44-2.12-0.5c-0.78,0.89-0.21,1.75,0.63,2.27
		c1.12,0.69,1.27,1.54,0.85,2.71c-0.24,0.68-0.22,1.46-0.29,1.96c-1.17,0.37-2.07,0.65-3.12,0.98c-0.24-1.67-0.26-3.52-0.81-5.19
		c-1.05-3.18-0.98-5.9,1.87-8.15c0.34-0.27,0.1-1.26,0.13-1.91c-0.61,0.14-1.26,0.19-1.8,0.46c-0.4,0.2-0.63,0.7-0.95,1.06
		c-0.31,0.35-0.64,0.68-1.02,1.08c-1.11-1.96-2.19-3.77-3.17-5.64c-0.16-0.3,0.03-0.93,0.26-1.27c0.61-0.87,1.41-1.61,1.98-2.5
		c0.25-0.39,0.11-1.04,0.15-1.56c-0.58-0.01-1.37-0.26-1.69,0.02c-0.95,0.82-1.72,1.85-2.62,2.88c-0.97-0.63-1.94-1.18-2.8-1.86
		c-0.31-0.25-0.56-0.8-0.55-1.2C165.8,41.77,167.01,39.08,169.98,37.64z M153.37,69.84c-2.75-4.38-3.85-9.21-2.83-14.4
		c0.9-4.58,4.09-6.93,8.3-7.84c3.88-0.84,6.99,0.98,9.34,3.96c3.09,3.92,4.51,8.59,5.18,13.43c0.61,4.43,0.83,8.9,1.23,13.36
		c-0.06,0.01-0.13,0.01-0.19,0.02c0,1.07-0.01,2.13,0,3.2c0.03,2.45-1.53,3.53-3.72,2.48C163.75,80.73,157.53,76.47,153.37,69.84z"
		/>
	<path d="M222.24,114.3c-2.34-0.04-4.69-0.07-7.03-0.15c-0.99-0.03-1.64-0.06-2.03-0.2h-4.31c-0.26,0.08-0.57,0.12-0.94,0.12
		c-6.82-0.05-13.64-0.02-20.46-0.02c0-0.03,0-0.07,0-0.1h-39.1c-0.99,0.45-1.41,1.37-1.38,2.91c0.09,5.17,0.21,10.33,0.36,15.5
		c0.08,2.73,0.68,3.35,3.41,3.56c0.94,0.07,1.43,0.41,1.71,1.32c0.82,2.7,1.77,5.37,2.58,8.08c3.95,13.24,7.86,26.48,11.79,39.72
		c0.84,2.83,2.35,4.04,5.35,4.04c6.72-0.01,13.43-0.11,20.15-0.15c3.35-0.02,6.71-0.01,10.06,0c1.07,0,1.57-0.5,1.91-1.53
		c1.75-5.37,3.55-10.72,5.39-16.07c3.79-11.05,7.64-22.07,11.41-33.13c0.37-1.08,0.89-1.75,2.02-1.93c1.06-0.17,1.75-0.77,1.84-1.89
		c0.43-5.41,0.95-10.82,1.22-16.25C226.32,115.66,224.72,114.34,222.24,114.3z M217.64,138.61c-4.56,13.2-9.11,26.39-13.69,39.59
		c-0.73,2.11-1.46,4.23-2.34,6.29c-0.23,0.53-1.01,1.16-1.54,1.17c-9.16,0.11-18.32,0.11-27.49,0.18c-1.61,0.01-2.2-0.85-2.6-2.23
		c-2.83-9.66-5.68-19.32-8.59-28.96c-1.65-5.46-3.45-10.87-5.16-16.31c-0.72-2.3-0.7-2.36,1.66-2.35c8.9,0.05,17.79,0.14,26.69,0.22
		c10.55,0.1,21.09,0.22,31.64,0.33c0.56,0.01,1.13,0,2.03,0C217.97,137.51,217.83,138.07,217.64,138.61z M222.4,130.89
		c-0.11,2.27-0.41,2.48-2.59,2.47c-9.59-0.06-19.17-0.16-28.76-0.24c-10.49-0.08-20.98-0.14-31.48-0.23
		c-2.56-0.02-5.11-0.11-7.67-0.12c-1.1,0-1.5-0.49-1.52-1.55c-0.1-4.37-0.22-8.73-0.37-13.1c-0.04-1.08,0.36-1.55,1.47-1.54
		c7.03,0.1,14.06,0.19,21.09,0.24c4.58,0.03,9.16,0.01,13.74,0.01c0,0.16,0,0.33,0,0.49c11.56,0,23.12,0.02,34.68-0.02
		c1.34,0,1.77,0.45,1.72,1.77C222.57,123.01,222.58,126.96,222.4,130.89z"/>
	<path class="st2" d="M187.47,114.04c6.82,0,13.64-0.03,20.46,0.02c0.37,0,0.68-0.04,0.94-0.12h-21.4
		C187.47,113.97,187.47,114.01,187.47,114.04z"/>
	<path class="st2" d="M180.6,74.03c-0.27-1.33-0.51-2.67-0.77-4c-0.15-0.06-0.3-0.12-0.45-0.18c-0.79,1.19-2.06,2.31-2.27,3.6
		c-0.37,2.32-0.11,4.73-0.11,7.11c0.19,0.07,0.39,0.13,0.58,0.2c0.5-0.27,1.01-0.52,1.5-0.8c2.91-1.68,2.9-1.68,1.82-4.85
		C180.79,74.75,180.68,74.39,180.6,74.03z"/>
</g>
<g>
	<path class="st0" d="M266.95,113.38c1.55,0,2.75,0,4.34,0c-0.89-1.28-1.56-2.25-2.5-3.61C268.1,111.11,267.59,112.11,266.95,113.38
		z"/>
	<path class="st0" d="M319.23,93.44c1.23-6.36,0.47-12.64-1.22-18.83c-2.03-7.45-6.63-12.54-14.16-14.44
		c-9.16-2.32-18.09-0.74-26.16,3.76c-8.43,4.69-12.28,12.72-12.68,22.18c-0.41,9.78,2.74,18.58,8.61,26.39
		c0.28,0.37,0.77,0.7,1.27,0.88h39.82c0.31-0.38,0.51-1.03,0.77-2.11C316.89,105.37,318.08,99.41,319.23,93.44z"/>
	<path class="st0" d="M275.57,113.53c6.18,0.08,12.36,0.05,18.55,0.05c0,0.12,0,0.24,0,0.35c5.86,0,11.73-0.02,17.59,0.01
		c1.74,0.01,2.51,0.05,3-0.56h-39.82C275.12,113.46,275.36,113.53,275.57,113.53z"/>
	<path class="st0" d="M324.53,136.48c-7.99-0.04-15.99-0.15-23.98-0.23c-10.87-0.11-21.75-0.21-32.62-0.31c-1.36-0.01-2.73,0-4.34,0
		c0.19,0.87,0.27,1.44,0.43,1.98c4.6,15.15,9.21,30.3,13.82,45.44c0.69,2.28,0.9,2.43,3.24,2.42c8.85-0.04,17.69-0.12,26.54-0.12
		c1.18,0,1.67-0.42,2.05-1.5c2.38-6.9,4.86-13.77,7.26-20.67c2.93-8.41,5.8-16.84,8.73-25.25
		C326.07,137.08,326.02,136.49,324.53,136.48z"/>
	<path class="st0" d="M328.88,117.27c-11.51,0.04-23.01,0.02-34.52,0.02c0-0.25,0-0.5,0-0.75c-11.51,0-23.01,0.02-34.52-0.02
		c-1.43-0.01-2.01,0.36-1.94,1.89c0.2,4.26,0.29,8.52,0.38,12.78c0.02,1.06,0.43,1.55,1.52,1.55c2.56,0,5.11,0.08,7.67,0.1
		c8.95,0.08,17.9,0.14,26.84,0.22c11.02,0.09,22.05,0.2,33.07,0.28c2.57,0.02,2.81-0.17,2.93-2.81c0.17-3.83,0.15-7.67,0.3-11.5
		C330.68,117.67,330.19,117.27,328.88,117.27z"/>
	<path d="M329.92,114.24c-3.68-0.03-7.35-0.09-11.03-0.16c-0.49-0.01-0.98-0.15-1.6-0.24c0.06-0.17,0.11-0.32,0.16-0.46h-2.75
		c-0.49,0.61-1.26,0.57-3,0.56c-5.86-0.03-11.73-0.01-17.59-0.01c0-0.12,0-0.23,0-0.35c-6.18,0-12.36,0.03-18.55-0.05
		c-0.21,0-0.45-0.07-0.68-0.15h-3.59c-1.59,0-2.78,0-4.34,0h-3.14c-0.52,0.17-1.13,0.18-1.84,0.1c-1.36-0.16-2.77,0.01-4.15,0.1
		c-2.12,0.14-2.93,1.03-2.94,3.18c0,1.01,0.14,2.02,0.15,3.03c0.08,4.37,0.08,8.74,0.23,13.1c0.07,2.09,0.89,2.9,3,2.95
		c1.41,0.03,1.92,0.68,2.29,1.9c4.59,15.32,9.24,30.62,13.81,45.95c1.38,4.64,2.54,5.5,7.4,5.37c5.54-0.14,11.09-0.13,16.63-0.16
		c3.89-0.02,7.77,0,11.66,0.02c1.23,0,1.85-0.53,2.24-1.77c1.53-4.82,3.16-9.61,4.81-14.4c3.95-11.5,7.95-22.98,11.88-34.48
		c0.39-1.13,0.88-1.87,2.11-2.05c1.08-0.16,1.71-0.81,1.8-1.93c0.42-5.31,0.94-10.61,1.22-15.93
		C334.26,115.62,332.67,114.27,329.92,114.24z M325.66,138.25c-2.93,8.41-5.8,16.84-8.73,25.25c-2.4,6.9-4.88,13.77-7.26,20.67
		c-0.37,1.08-0.87,1.5-2.05,1.5c-8.85,0-17.69,0.07-26.54,0.12c-2.34,0.01-2.55-0.14-3.24-2.42c-4.61-15.15-9.22-30.29-13.82-45.44
		c-0.16-0.54-0.24-1.1-0.43-1.98c1.61,0,2.97-0.01,4.34,0c10.87,0.1,21.75,0.2,32.62,0.31c7.99,0.08,15.99,0.19,23.98,0.23
		C326.02,136.49,326.07,137.08,325.66,138.25z M330.33,130.52c-0.12,2.65-0.35,2.83-2.93,2.81c-11.02-0.07-22.05-0.18-33.07-0.28
		c-8.95-0.07-17.9-0.14-26.84-0.22c-2.56-0.02-5.11-0.1-7.67-0.1c-1.1,0-1.5-0.49-1.52-1.55c-0.09-4.26-0.18-8.52-0.38-12.78
		c-0.07-1.53,0.51-1.9,1.94-1.89c11.51,0.04,23.01,0.02,34.52,0.02c0,0.25,0,0.5,0,0.75c11.51,0,23.01,0.02,34.52-0.02
		c1.31,0,1.8,0.4,1.75,1.75C330.48,122.85,330.5,126.69,330.33,130.52z"/>
	<path class="st1" d="M268.79,109.77c0.94,1.36,1.62,2.33,2.5,3.61h3.59c-0.5-0.18-1-0.51-1.27-0.88
		c-5.86-7.81-9.02-16.6-8.61-26.39c0.4-9.46,4.25-17.49,12.68-22.18c8.07-4.49,17-6.07,26.16-3.76c7.53,1.9,12.13,6.99,14.16,14.44
		c1.69,6.19,2.45,12.47,1.22,18.83c-1.15,5.96-2.34,11.92-3.75,17.82c-0.26,1.08-0.46,1.72-0.77,2.11h2.75
		c0.18-0.49,0.34-0.87,0.41-1.27c0.28-1.52,0.97-2.26,2.69-2.08c1.24,0.12,2.57-0.1,3.78-0.44c0.52-0.15,0.84-0.99,1.25-1.52
		c-0.58-0.22-1.14-0.52-1.73-0.64c-0.41-0.08-0.87,0.08-1.31,0.13c-0.09-0.14-0.18-0.29-0.26-0.43c0.45-0.34,1.06-0.59,1.31-1.05
		c0.31-0.57,0.33-1.3,0.47-1.96c-0.66,0.08-1.39,0-1.95,0.28c-0.77,0.38-1.41,1.02-2.1,1.56c-0.12-0.08-0.25-0.16-0.37-0.25
		c0.4-2.2,0.79-4.39,1.22-6.78c0.61,0.31,0.95,0.43,1.23,0.64c0.77,0.57,1.46,1.27,2.28,1.74c0.48,0.28,1.15,0.25,1.74,0.36
		c0.05-0.57,0.13-1.15,0.15-1.72c0.01-0.18-0.11-0.37-0.22-0.7c0.55,0.04,1.01,0.2,1.35,0.07c0.66-0.25,1.7-0.57,1.8-1.03
		c0.24-1.11-0.76-1.24-1.67-1.36c-1.63-0.22-3.27-0.51-4.87-0.9c-0.43-0.11-1.08-0.7-1.06-1.04c0.11-1.78,0.41-3.56,0.68-5.66
		c1.33,0.87,2.41,1.59,3.51,2.29c0.7,0.44,1.59,0.9,2.04-0.08c0.19-0.4-0.37-1.24-0.74-1.79c-0.27-0.4-0.78-0.63-1.27-1.01
		c3.85-1.52,4.02-1.84,1.92-3.55c0.32-0.28,0.76-0.51,0.92-0.85c0.19-0.43,0.33-1.04,0.16-1.42c-0.12-0.27-0.83-0.43-1.23-0.36
		c-0.5,0.08-0.96,0.43-1.42,0.7c-1.18,0.69-2.34,1.4-3.67,2.21c-0.56-3.6-1.08-6.92-1.65-10.51c1.51,0.36,2.74,0.67,3.97,0.93
		c0.87,0.19,1.93,0.59,2.34-0.59c0.4-1.17-0.76-1.3-1.48-1.68c-0.08-0.04-0.11-0.16-0.23-0.35c0.63-0.3,1.34-0.48,1.82-0.91
		c0.39-0.36,0.5-1.03,0.74-1.56c-0.55-0.16-1.11-0.47-1.65-0.45c-0.6,0.02-1.19,0.35-1.78,0.54c-0.1-0.18-0.21-0.36-0.31-0.53
		c0.5-0.39,1.12-0.69,1.46-1.19c0.27-0.4,0.19-1.03,0.27-1.56c-0.57-0.04-1.2-0.24-1.71-0.06c-0.52,0.18-0.91,0.71-1.36,1.09
		c-1.03,0.89-2.06,1.78-3.08,2.66c-1.51-2.54-2.88-4.85-4.1-6.9c1-1.12,2.05-2.19,2.95-3.38c0.28-0.37,0.17-1.05,0.23-1.58
		c-0.57-0.02-1.16-0.13-1.71-0.03c-0.36,0.06-0.68,0.41-1.38,0.88c0.18-1.5,0.42-2.64,0.42-3.77c0-0.52-0.48-1.03-0.75-1.54
		c-0.49,0.39-1.17,0.68-1.41,1.18c-0.31,0.64-0.27,1.45-0.38,2.19c-0.16,1.17-0.31,2.34-0.46,3.49c-2.76-1.46-5.29-2.79-7.96-4.19
		c0.39-0.54,0.77-1.1,1.18-1.63c0.74-0.98,1.6-1.89,2.18-2.95c0.26-0.47-0.03-1.23-0.06-1.86c-0.59,0.18-1.24,0.25-1.73,0.58
		c-0.47,0.31-0.77,0.88-1.15,1.34c-0.18-0.58-0.12-1,0.02-1.37c0.33-0.85,0.63-1.77-0.53-2.11c-1.11-0.33-1.43,0.63-1.74,1.44
		c-0.3,0.8-0.57,1.61-0.85,2.42c-0.57-0.7-0.75-1.36-1.01-1.99c-0.38-0.92-0.48-2.47-1.96-1.9c-1.32,0.51-0.49,1.74-0.23,2.65
		c0.43,1.5,0.92,2.97,1.38,4.45c-4.34,0.2-8.34,0.38-12.4,0.57c0.02-0.41-0.01-0.79,0.07-1.14c0.39-1.6,0.84-3.2,1.22-4.8
		c0.2-0.82,0.56-1.89-0.64-2.06c-0.45-0.07-1.1,0.82-1.57,1.36c-0.27,0.31-0.35,0.78-0.61,1.41c-0.22-0.47-0.26-0.71-0.4-0.84
		c-0.51-0.5-1.13-1.42-1.57-1.35c-1.17,0.19-0.84,1.24-0.65,2.08c0.26,1.12,0.52,2.23,0.78,3.35c-0.14,0.09-0.28,0.17-0.42,0.26
		c-1.05-0.94-2.07-1.9-3.14-2.81c-0.79-0.66-1.57-2.17-2.71-0.91c-1,1.1,0.38,1.89,1.1,2.58c1.4,1.34,2.87,2.61,4.5,4.07
		c-2.47,0.89-4.69,1.69-7.11,2.56c-0.41-2.45-0.72-4.71-1.21-6.93c-0.11-0.5-0.85-0.86-1.3-1.29c-0.35,0.51-0.93,1-0.99,1.54
		c-0.09,0.8,0.19,1.65,0.29,2.31c-0.81,0.16-1.88,0.1-2.03,0.46c-0.24,0.53,0.04,1.4,0.32,2.03c0.43,0.97,1.09,1.83,1.55,2.79
		c0.17,0.35,0.25,1.03,0.05,1.23c-1.16,1.14-2.43,2.18-3.8,3.38c-1.08-1.59-2.02-3.13-3.14-4.52c-0.31-0.39-1.16-0.34-1.76-0.5
		c-0.04,0.58-0.27,1.23-0.07,1.71c0.35,0.86,0.96,1.61,1.51,2.48c-0.33,0.08-0.49,0.17-0.62,0.14c-0.81-0.15-1.82-0.36-1.87,0.74
		c-0.02,0.51,0.82,1.19,1.42,1.56c0.73,0.46,1.61,0.68,2.55,1.05c-1.16,1.9-2.2,3.6-3.34,5.47c-0.72-0.66-1.27-1.33-1.97-1.75
		c-0.53-0.32-1.6-0.67-1.82-0.44c-0.9,0.97-1.64,0.46-2.55,0.16c-0.48-0.16-1.12,0.2-1.69,0.32c0.24,0.57,0.33,1.29,0.74,1.68
		c0.56,0.53,1.36,0.81,2.4,1.38c-0.7,0.14-1.01,0.11-1.2,0.25c-0.38,0.29-1.04,0.79-0.97,1c0.15,0.46,0.62,0.97,1.08,1.14
		c0.57,0.22,1.26,0.12,1.9,0.15c0.88,0.04,1.76,0.08,2.82,0.13c-0.36,1.76-0.67,3.29-1.03,5.01c-1.01-0.27-1.81-0.59-2.63-0.67
		c-0.74-0.07-1.61-0.06-2.2,0.29c-0.28,0.16-0.05,1.2-0.05,1.95c-0.27,0.08-0.74,0.11-1.05,0.34c-0.56,0.42-1.03,0.97-1.54,1.46
		c0.66,0.26,1.34,0.77,1.98,0.73c1.37-0.1,2.72-0.53,4.09-0.73c0.36-0.05,1.1,0.23,1.13,0.43c0.34,2.67,0.59,5.35,0.88,8.3
		c-0.94-0.43-1.62-0.87-2.37-1.05c-0.48-0.11-1.06,0.16-1.59,0.26c0.11,0.52,0.15,1.06,0.37,1.53c0.1,0.22,0.54,0.28,0.82,0.41
		c-0.52,0.47-0.82,0.48-0.99,0.62c-0.52,0.43-1.4,0.91-1.4,1.37c-0.02,1.05,0.94,1.06,1.8,0.98c0.47-0.04,0.95-0.01,1.74-0.01
		c-0.5,0.62-0.84,0.88-0.93,1.2c-0.18,0.63-0.23,1.3-0.33,1.95c0.66-0.14,1.4-0.12,1.94-0.45c0.79-0.48,1.44-1.2,2.11-1.78
		c0.24,0.15,0.37,0.18,0.41,0.26c0.65,1.52,1.25,3.06,1.94,4.56c0.43,0.92,0.18,1.34-0.74,1.64c-0.96,0.31-1.94,0.66-2.78,1.19
		c-0.35,0.22-0.56,1-0.47,1.45c0.06,0.26,0.85,0.5,1.31,0.5c0.53,0,1.06-0.26,1.93-0.51c-0.32,0.76-0.57,1.16-0.66,1.6
		c-0.23,1.09-0.74,1.63-1.46,1.86h3.14C267.59,112.11,268.1,111.11,268.79,109.77z"/>
</g>
</svg>
